<?xml version="1.0" standalone="no"?><!DOCTYPE svg PUBLIC "-//W3C//DTD SVG 1.1//EN" "http://www.w3.org/Graphics/SVG/1.1/DTD/svg11.dtd"><svg t="1693993760637" class="icon" viewBox="0 0 1024 1024" version="1.1" xmlns="http://www.w3.org/2000/svg" p-id="9838" xmlns:xlink="http://www.w3.org/1999/xlink" width="200" height="200"><path d="M512 512m-512 0a512 512 0 1 0 1024 0 512 512 0 1 0-1024 0Z" fill="#FBD971" p-id="9839"></path><path d="M292.571429 365.714286m-170.666667 0a170.666667 170.666667 0 1 0 341.333333 0 170.666667 170.666667 0 1 0-341.333333 0Z" fill="#FFFFFF" p-id="9840"></path><path d="M731.428571 365.714286m-170.666666 0a170.666667 170.666667 0 1 0 341.333333 0 170.666667 170.666667 0 1 0-341.333333 0Z" fill="#FFFFFF" p-id="9841"></path><path d="M780.190476 658.285714H243.809524c0 148.114286 120.07619 268.190476 268.190476 268.190476s268.190476-120.07619 268.190476-268.190476z" fill="#FFFFFF" p-id="9842"></path><path d="M731.428571 755.809524h-48.761904v-97.52381a24.380952 24.380952 0 1 0-48.761905 0v97.52381h-48.761905v-97.52381a24.380952 24.380952 0 1 0-48.761905 0v97.52381h-48.761904v-97.52381a24.380952 24.380952 0 1 0-48.761905 0v97.52381h-48.761905v-97.52381a24.380952 24.380952 0 1 0-48.761905 0v97.52381h-48.761904a24.380952 24.380952 0 1 0 0 48.761905h48.761904v73.142857a24.380952 24.380952 0 1 0 48.761905 0v-73.142857h48.761905v97.523809a24.380952 24.380952 0 1 0 48.761905 0v-97.523809h48.761904v97.523809a24.380952 24.380952 0 1 0 48.761905 0v-97.523809h48.761905v73.142857a24.380952 24.380952 0 1 0 48.761905 0v-73.142857h48.761904a24.380952 24.380952 0 1 0 0-48.761905z" fill="#ECF0F0" p-id="9843"></path><path d="M512 950.857143c-161.328762 0-292.571429-131.242667-292.571429-292.571429a24.380952 24.380952 0 0 1 24.380953-24.380952h536.380952a24.380952 24.380952 0 0 1 24.380953 24.380952c0 161.328762-131.242667 292.571429-292.571429 292.571429z m-242.590476-268.190476c12.263619 123.026286 116.370286 219.428571 242.590476 219.428571s230.326857-96.402286 242.590476-219.428571h-485.180952z" fill="#F0C419" p-id="9844"></path><path d="M292.571429 365.714286m-121.904762 0a121.904762 121.904762 0 1 0 243.809523 0 121.904762 121.904762 0 1 0-243.809523 0Z" fill="#AF8066" p-id="9845"></path><path d="M731.428571 365.714286m-121.904761 0a121.904762 121.904762 0 1 0 243.809523 0 121.904762 121.904762 0 1 0-243.809523 0Z" fill="#AF8066" p-id="9846"></path></svg>